<svg width="31" height="27" viewBox="0 0 31 27" fill="none" xmlns="http://www.w3.org/2000/svg">
<path d="M0 1.92857C0 1.41708 0.203189 0.926543 0.564866 0.564866C0.926543 0.203189 1.41708 0 1.92857 0H28.9286C29.4401 0 29.9306 0.203189 30.2923 0.564866C30.654 0.926543 30.8571 1.41708 30.8571 1.92857C30.8571 2.44006 30.654 2.9306 30.2923 3.29228C29.9306 3.65395 29.4401 3.85714 28.9286 3.85714H1.92857C1.41708 3.85714 0.926543 3.65395 0.564866 3.29228C0.203189 2.9306 0 2.44006 0 1.92857Z" fill="#005B96"/>
<path d="M0 25.0714C0 24.5599 0.203189 24.0694 0.564866 23.7077C0.926543 23.346 1.41708 23.1429 1.92857 23.1429H28.9286C29.4401 23.1429 29.9306 23.346 30.2923 23.7077C30.654 24.0694 30.8571 24.5599 30.8571 25.0714C30.8571 25.5829 30.654 26.0735 30.2923 26.4351C29.9306 26.7968 29.4401 27 28.9286 27H1.92857C1.41708 27 0.926543 26.7968 0.564866 26.4351C0.203189 26.0735 0 25.5829 0 25.0714Z" fill="#005B96"/>
<path d="M1.92857 11.5714C1.41708 11.5714 0.926543 11.7746 0.564866 12.1363C0.203189 12.498 0 12.9885 0 13.5C0 14.0115 0.203189 14.502 0.564866 14.8637C0.926543 15.2254 1.41708 15.4286 1.92857 15.4286H17.3571C17.8686 15.4286 18.3592 15.2254 18.7208 14.8637C19.0825 14.502 19.2857 14.0115 19.2857 13.5C19.2857 12.9885 19.0825 12.498 18.7208 12.1363C18.3592 11.7746 17.8686 11.5714 17.3571 11.5714H1.92857Z" fill="#005B96"/>
</svg>
