<svg width="27" height="40" viewBox="0 0 27 40" fill="none" xmlns="http://www.w3.org/2000/svg">
<path d="M4.87939 39.9615V32.041L12.9344 32.0965C15.8744 32.1649 18.3099 29.9348 18.5663 27.2947C18.8764 24.2785 16.3375 21.2581 12.9344 21.288L20.9315 17.0629C25.1782 20.0064 27.3697 25.1287 26.4641 29.9049C25.3394 35.8859 19.5711 40.4357 12.9303 39.9445L4.87939 39.9615Z" fill="url(#paint0_linear_36_5003)"/>
<path d="M6.89306 14.568H0V39.9616H6.89306V14.568Z" fill="url(#paint1_linear_36_5003)"/>
<path d="M0 0V6.85678H13.1162C14.106 6.85678 15.0552 7.26299 15.7551 7.98606C16.4549 8.70912 16.8481 9.68981 16.8481 10.7124C16.8481 11.7349 16.4549 12.7156 15.7551 13.4387C15.0552 14.1618 14.106 14.568 13.1162 14.568H0V21.382H13.844C19.2815 21.1513 23.6481 16.7809 24.0409 11.5348C24.4544 5.77593 20.0217 0.427214 14.0466 0H0Z" fill="url(#paint2_linear_36_5003)"/>
<defs>
<linearGradient id="paint0_linear_36_5003" x1="19.2816" y1="20.596" x2="10.9532" y2="43.4265" gradientUnits="userSpaceOnUse">
<stop stop-color="#00628B"/>
<stop offset="0.03" stop-color="#006792"/>
<stop offset="0.19" stop-color="#007BAF"/>
<stop offset="0.36" stop-color="#008BC6"/>
<stop offset="0.54" stop-color="#0096D6"/>
<stop offset="0.74" stop-color="#009DE0"/>
<stop offset="1" stop-color="#009FE3"/>
</linearGradient>
<linearGradient id="paint1_linear_36_5003" x1="3.45273" y1="16.3495" x2="3.4439" y2="29.4393" gradientUnits="userSpaceOnUse">
<stop offset="0.47" stop-color="#00628B"/>
<stop offset="1" stop-color="#009FE3"/>
</linearGradient>
<linearGradient id="paint2_linear_36_5003" x1="5.9172" y1="4.04998" x2="12.6007" y2="14.9016" gradientUnits="userSpaceOnUse">
<stop offset="0.28" stop-color="#00628B"/>
<stop offset="1" stop-color="#009FE3"/>
</linearGradient>
</defs>
</svg>
